<svg width="808" height="560" xmlns="http://www.w3.org/2000/svg" xmlns:xlink="http://www.w3.org/1999/xlink" xml:space="preserve" overflow="hidden"><defs><clipPath id="clip0"><rect x="440" y="80" width="808" height="560"/></clipPath></defs><g clip-path="url(#clip0)" transform="translate(-440 -80)"><path d="M302.646 226.945 328.088 147.946C328.505 146.649 327.851 145.25 326.589 144.738 325.327 144.227 323.883 144.775 323.28 145.997L285.444 222.608 302.646 226.945Z" fill="#E6E6E6" transform="matrix(1.00152 0 0 1 440 -43.3562)"/><path d="M327.077 195.489C326.789 197.168 326.35 198.845 325.734 200.5 321.074 213.03 308.315 220.17 295.568 218.241 287.942 203.899 272.854 194.131 255.479 194.131 230.416 194.131 210.098 214.449 210.098 239.512 210.098 264.575 230.416 284.893 255.479 284.893 279.297 284.893 298.815 266.541 300.698 243.208 314.789 247.742 330.056 240.47 335.252 226.498 339.453 215.197 335.817 202.878 327.077 195.489Z" fill="#737373" transform="matrix(1.00152 0 0 1 440 -43.3562)"/><path d="M559.086 565.584C567.072 559.187 578.807 554.827 588.164 554.318 584.851 558.467 584.137 564.564 587.662 569.579 601.532 589.303 628.467 594.114 628.467 594.114 628.467 599.442 627.882 604.633 626.778 609.629 619.495 642.638 589.47 667.109 553.973 665.76 545.748 665.447 537.863 663.715 530.551 660.813 525.918 653.657 524.125 642.041 524.125 634.385 524.125 606.261 538.72 581.899 559.086 565.584Z" fill="#2F2F2F" transform="matrix(1.00152 0 0 1 440 -43.3562)"/><path d="M486.26 574.553C486.26 574.552 486.26 574.552 486.26 574.551 486.26 574.552 486.26 574.553 486.26 574.553 486.049 575.126 486.114 575.765 486.049 576.372 485.349 582.878 485.026 589.444 485.105 596.045 485.112 596.468 485.117 596.758 485.122 596.906 486.222 625.842 504.826 650.602 530.552 660.813 528.735 653.724 527.767 646.294 527.767 638.638 527.767 610.514 540.812 585.441 561.177 569.127 569.163 562.729 578.272 557.675 588.165 554.318 601.722 551.295 616.438 548.424 624.939 546.389 624.556 546.054 624.142 545.774 623.849 545.397 589.788 501.49 505.3 511.351 486.26 574.553Z" fill="#505050" transform="matrix(1.00152 0 0 1 440 -43.3562)"/><path d="M487.092 396.497C526.284 396.556 560.555 419.772 572.532 455.549 593.347 432.932 625.869 425.967 652.313 431.346 655.636 432.021 661.76 435.661 662.838 436.021 704.152 474.731 679.145 537.561 624.937 546.389 584.061 507.878 509.098 522.895 486.281 574.503 486.269 574.531 486.262 574.529 486.265 574.499 489.648 546.107 500.296 518.946 516.918 495.348 523.223 486.397 526.925 475.482 526.925 463.7 527.677 413.252 461.99 389.425 430.184 427.786 429.475 425.48 428.92 423.107 428.516 420.684 442.719 405.069 464.472 396.497 487.092 396.497Z" fill="#737373" transform="matrix(1.00152 0 0 1 440 -43.3562)"/><path d="M662.84 436.021C662.84 404.9 648.784 380.581 629.026 364.77 594.114 336.831 540.457 334.558 510.808 364.207 502.041 359.015 491.716 356.175 480.697 356.588 452.168 357.656 428.952 380.811 427.804 409.338 427.648 413.218 427.904 417.01 428.516 420.682 444.221 406.784 464.866 398.344 487.486 398.344 515.327 398.344 540.179 411.127 556.504 431.142 563.253 439.416 568.543 448.927 571.984 459.283 588.19 442.441 610.959 431.959 636.177 431.959 645.334 431.959 654.167 433.343 662.482 435.909 662.6 435.945 662.84 436.023 662.84 436.021Z" fill="#D2D2D2" transform="matrix(1.00152 0 0 1 440 -43.3562)"/><path d="M556.421 383.924 551.136 385.717 546.664 382.379 546.735 387.959 542.178 391.181 547.508 392.838 549.165 398.167 552.387 393.611 557.967 393.682 554.63 389.209Z" fill="#737373" transform="matrix(1.00152 0 0 1 440 -43.3562)"/><path d="M616.886 398.916 606.316 402.5 597.37 395.825 597.513 406.985 588.4 413.43 599.059 416.743 602.372 427.402 608.817 418.289 619.977 418.431 613.302 409.486Z" fill="#FFFFFF" transform="matrix(1.00152 0 0 1 440 -43.3562)"/><path d="M546.337 480.748 541.052 482.541 536.579 479.203 536.65 484.783 532.094 488.005 537.424 489.662 539.08 494.991 542.302 490.435 547.882 490.506 544.545 486.034Z" fill="#E6E6E6" transform="matrix(1.00152 0 0 1 440 -43.3562)"/><path d="M378.585 551.52 358.848 455.716C358.848 455.716 387.87 450.054 402.884 455.773 421.709 462.945 422.717 480.927 422.717 480.927L383.586 601.912 329.433 601.912C329.434 574.49 351.327 552.197 378.585 551.52Z" fill="#E8E8E8" transform="matrix(1.00152 0 0 1 440 -43.3562)"/><path d="M276.435 552.444 276.774 447.654 293.755 447.758C308.832 447.849 320.555 460.902 319.034 475.903 319.034 475.903 319.07 530.176 313.243 554.827 307.416 579.478 294.137 601.025 294.137 601.025L239.512 601.025 239.512 601.025C239.512 577.855 255.146 558.349 276.435 552.444Z" fill="#B5B5B5" transform="matrix(1.00152 0 0 1 440 -43.3562)"/><path d="M449.675 491.52 439.976 468.085 430.955 447.929 430.955 426.415 430.365 416.919C429.038 397.875 419.878 381.296 405.922 371.923 397.943 366.564 388.136 363.89 377.816 363.89L337.013 363.89C305.477 346.443 280.264 320.347 263.846 289.315 269.37 291.522 275.395 292.742 281.708 292.742 291.883 292.742 301.32 289.587 309.098 284.203 316.42 279.135 325.483 277.56 334.17 279.518 335.851 279.897 337.601 280.097 339.398 280.097 351.961 280.097 362.234 270.325 363.048 257.969 363.049 257.965 363.05 257.96 363.05 257.955L363.05 257.955C363.05 248.671 356.738 240.577 347.735 238.312L266.341 217.792C266.614 212.18 265.899 206.539 264.109 201.156 261.929 194.6 258.842 190.483 255.557 190.601 250.677 190.778 246.909 200.244 246.147 212.953 241.311 215.196 237.96 218.168 235.589 221.496 232.669 224.934 229.194 230.047 225.842 237.494 219.837 250.84 211.499 281.42 215.141 322.711 218.688 362.929 235.144 390.521 235.144 390.521 235.144 412.171 243.94 432.891 259.515 447.929L302.709 471.236C302.709 471.236 350.464 463.012 352.985 462.929 353.531 462.91 354.579 463.024 354.579 463.024 355.526 466.169 356.726 469.281 358.208 472.331 365.892 488.128 379.41 499.177 394.907 504.164 405.351 507.524 412.466 517.189 412.466 528.16L412.466 552.138C401.62 552.408 391.689 556.134 383.661 562.251 383.359 562.482 383.662 563.291 383.923 563.567 398.739 579.255 427.008 580.209 427.008 580.209L445.959 533.417 450.198 520.623C453.478 511.257 453.358 500.747 449.675 491.52Z" fill="#D99838" transform="matrix(1.00152 0 0 1 440 -43.3562)"/><path d="M385.74 562.223C385.039 562.223 384.343 562.25 383.647 562.276 371.511 571.534 363.724 586.25 363.724 602.751L417.877 602.751 426.998 580.228C416.716 569.158 402.041 562.223 385.74 562.223Z" fill="#505050" transform="matrix(1.00152 0 0 1 440 -43.3562)"/><path d="M298.339 413.473C278.714 413.473 261.443 423.519 251.364 438.744 253.826 441.99 256.419 445.232 259.387 448.097L303.382 473.477 354.558 463.021C351.248 435.079 327.172 413.473 298.339 413.473Z" fill="#E8E8E8" transform="matrix(1.00152 0 0 1 440 -43.3562)"/><path d="M445.852 533.68 451.459 520.82C455.325 511.071 454.821 500.034 450.787 491.35L439.935 467.805C434.91 476.231 431.962 486.148 431.962 496.672 431.962 510.844 437.209 523.783 445.852 533.68Z" fill="#E8E8E8" transform="matrix(1.00152 0 0 1 440 -43.3562)"/><path d="M394.985 395.615C394.985 412.904 409.001 426.919 426.289 426.919 427.875 426.919 429.432 426.799 430.955 426.572L430.955 417.028C430.955 397.98 420.926 381.281 405.866 371.901 399.206 377.641 394.985 386.133 394.985 395.615Z" fill="#D2D2D2" transform="matrix(1.00152 0 0 1 440 -43.3562)"/><path d="M312.367 551.231 265.564 446.249 284.514 446.249C301.148 446.249 315.951 456.801 321.375 472.525L333.127 506.592C340.866 531.174 341.965 557.237 336.492 582.18 335.042 588.784 303.067 569.905 298.844 558.244 298.734 557.939 298.473 557.383 298.749 557.211 302.93 554.609 307.507 552.578 312.367 551.231Z" fill="#D1D1D1" transform="matrix(1.00152 0 0 1 440 -43.3562)"/><path d="M330.762 601.708C333.125 595.328 335.024 588.82 336.472 582.236 328.121 569.253 314.588 559.931 298.787 557.188 283.911 566.427 274.003 582.907 274.003 601.708L330.762 601.708 330.762 601.708Z" fill="#2F2F2F" transform="matrix(1.00152 0 0 1 440 -43.3562)"/><path d="M321.702 472.581C316.278 456.856 301.148 446.249 284.514 446.249L268.043 446.249C267.413 446.249 266.406 446.81 266.446 447.089 266.993 450.829 269.136 454.358 270.851 458.108L280.966 480.795C291.235 494.516 307.616 503.395 326.072 503.395 328.047 503.395 330.036 503.313 331.959 503.115 331.959 503.115 331.136 500.244 330.484 497.744 329.833 495.243 321.702 472.581 321.702 472.581Z" fill="#E8E8E8" transform="matrix(1.00152 0 0 1 440 -43.3562)"/><path d="M388.261 418.41C388.261 424.386 383.417 429.231 377.441 429.231 371.466 429.231 366.621 424.386 366.621 418.41 366.621 412.435 371.466 407.59 377.441 407.59 383.417 407.59 388.261 412.435 388.261 418.41Z" fill="#F2F2F2" transform="matrix(1.00152 0 0 1 440 -43.3562)"/><path d="M404.545 434.431C404.545 437.071 402.405 439.211 399.765 439.211 397.125 439.211 394.985 437.071 394.985 434.431 394.985 431.791 397.125 429.651 399.765 429.651 402.405 429.651 404.545 431.791 404.545 434.431Z" fill="#F2F2F2" transform="matrix(1.00152 0 0 1 440 -43.3562)"/><path d="M387.737 450.714C387.737 453.354 385.597 455.494 382.957 455.494 380.317 455.494 378.177 453.353 378.177 450.714 378.177 448.073 380.317 445.933 382.957 445.933 385.597 445.933 387.737 448.074 387.737 450.714Z" fill="#F2F2F2" transform="matrix(1.00152 0 0 1 440 -43.3562)"/><path d="M348.078 238.088 337.213 235.355C333.008 240.061 329.566 245.463 327.091 251.372 325.911 251.299 324.725 251.25 323.527 251.25 297.737 251.25 275.944 268.334 268.827 291.799 272.734 292.805 276.83 293.342 281.051 293.342 291.381 293.342 301.314 290.246 309.208 284.78 316.641 279.636 325.488 277.93 334.307 279.918 336.014 280.303 337.79 280.506 339.614 280.506 352.367 280.506 362.797 270.586 363.622 258.043 363.623 258.038 363.624 258.034 363.624 258.029L363.624 258.029C363.624 248.605 357.217 240.388 348.078 238.088Z" fill="#E8E8E8" transform="matrix(1.00152 0 0 1 440 -43.3562)"/><path d="M341.199 254.219C341.199 248.881 343.833 244.554 347.082 244.554 350.331 244.554 352.965 248.881 352.965 254.219L341.199 254.219Z" fill="#505050" transform="matrix(1.00152 0 0 1 440 -43.3562)"/><path d="M354.824 273.857C352.372 274.695 349.86 274.931 347.313 274.818 344.773 274.698 342.247 274.15 339.823 273.282 338.651 272.77 337.429 272.319 336.324 271.659 335.768 271.338 335.17 271.067 334.644 270.701L333.042 269.619C332.49 269.273 332.002 268.858 331.506 268.45L330.012 267.221C329.07 266.352 328.174 265.433 327.25 264.53 326.345 263.646 326.328 262.197 327.211 261.292 328.095 260.386 329.545 260.37 330.45 261.253 330.511 261.313 330.569 261.376 330.622 261.441L330.758 261.607C331.48 262.492 332.181 263.41 332.927 264.287L334.117 265.525C334.514 265.942 334.906 266.368 335.352 266.722L336.653 267.847C337.082 268.233 337.574 268.521 338.034 268.866 338.945 269.577 339.968 270.085 340.961 270.676 343.016 271.696 345.219 272.463 347.517 272.847 349.795 273.233 352.23 273.273 354.467 272.795L354.526 272.782C354.828 272.717 355.125 272.91 355.189 273.212 355.25 273.492 355.089 273.767 354.824 273.857Z" fill="#D1D1D1" transform="matrix(1.00152 0 0 1 440 -43.3562)"/><path d="M311.558 239.076C311.558 244.069 305.081 248.117 297.092 248.117 289.103 248.117 282.627 244.069 282.627 239.076 282.627 234.083 289.103 230.035 297.092 230.035 305.081 230.035 311.558 234.083 311.558 239.076Z" fill="#F2F2F2" transform="matrix(1.00152 0 0 1 440 -43.3562)"/><path d="M282.626 239.076C282.626 241.586 284.264 243.855 286.906 245.494 287.466 245.615 288.045 245.682 288.641 245.682 293.162 245.682 296.827 242.017 296.827 237.497 296.827 234.488 295.199 231.866 292.78 230.443 286.897 231.59 282.626 235.021 282.626 239.076Z" fill="#505050" transform="matrix(1.00152 0 0 1 440 -43.3562)"/><path d="M410.523 331.982C422.477 327.604 435.085 328.632 445.689 333.806 445.766 327.267 444.422 320.574 441.42 314.156 432.013 294.046 408.857 283.783 387.631 290.292 381.604 292.14 376.271 295.116 371.776 298.906 369.887 300.499 367.923 301.976 365.901 303.345 355.598 317.276 342.376 326.24 326.688 332.739 290.818 347.6 246.572 328.211 230.995 290.383 220.014 263.715 226.961 232.116 246.044 210.986 246.09 210.566 246.13 210.145 246.182 209.726 245.776 209.753 245.369 209.797 244.963 209.828 203.879 240.184 184.812 301.401 203.879 353.469 221.559 401.747 268.762 437.036 316.156 439.988 324.389 440.5 332.964 440.534 342.157 436.544 382.815 398.22 386.673 340.716 410.523 331.982Z" fill="#505050" transform="matrix(1.00152 0 0 1 440 -43.3562)"/><path d="M207.736 352.396C188.672 300.336 205.201 243.933 244.943 209.845 244.954 209.836 244.952 209.829 244.937 209.83 233.255 210.718 221.501 213.162 209.955 217.39 141.757 242.365 107.004 318.336 133.022 386.402 158.583 453.279 233.994 486.258 301.223 461.639 318.133 455.446 331.422 446.66 342.157 436.544 284.757 442.426 228.487 409.061 207.736 352.396Z" fill="#737373" transform="matrix(1.00152 0 0 1 440 -43.3562)"/><path d="M228.852 290.246C243.282 329.649 287.147 349.812 326.829 335.281 343.757 329.082 357.185 317.568 365.902 303.345 347.919 315.52 325.111 318.676 304.801 310.263 280.837 300.334 260.943 280.793 251.319 254.513 246.047 240.117 244.469 225.281 246.043 211.01 246.044 210.997 246.038 210.993 246.028 211.003 226.145 231.345 218.476 261.912 228.852 290.246Z" fill="#2F2F2F" transform="matrix(1.00152 0 0 1 440 -43.3562)"/><path d="M176.677 255.344 178.47 260.629 175.132 265.102 180.713 265.03 183.935 269.587 185.591 264.258 190.92 262.601 186.365 259.379 186.435 253.799 181.963 257.137Z" fill="#D99838" transform="matrix(1.00152 0 0 1 440 -43.3562)"/><path d="M203.24 397.37 205.032 402.656 201.694 407.128 207.274 407.057 210.497 411.613 212.154 406.284 217.483 404.627 212.926 401.405 212.998 395.825 208.525 399.163Z" fill="#FFFFFF" transform="matrix(1.00152 0 0 1 440 -43.3562)"/><path d="M162.283 358.76 165.867 348.19 159.192 339.245 170.353 339.388 176.798 330.274 180.11 340.933 190.769 344.246 181.656 350.691 181.799 361.851 172.854 355.176Z" fill="#FFFFFF" transform="matrix(1.00152 0 0 1 440 -43.3562)"/><path d="M225.795 352.212 229.379 362.782 222.704 371.728 233.864 371.585 240.309 380.698 243.622 370.039 254.281 366.726 245.168 360.281 245.311 349.121 236.365 355.796Z" fill="#D99838" transform="matrix(1.00152 0 0 1 440 -43.3562)"/><path d="M233.764 489.152 228.479 490.945 224.007 487.607 224.078 493.187 219.521 496.409 224.85 498.066 226.508 503.395 229.73 498.839 235.31 498.91 231.972 494.437Z" fill="#737373" transform="matrix(1.00152 0 0 1 440 -43.3562)"/><path d="M169.006 483.796 172.591 494.366 165.915 503.311 177.076 503.168 183.521 512.281 186.834 501.623 197.492 498.31 188.379 491.865 188.522 480.705 179.577 487.38Z" fill="#D99838" transform="matrix(1.00152 0 0 1 440 -43.3562)"/><path d="M222.839 154.676 217.554 156.469 213.082 153.13 213.153 158.711 208.596 161.933 213.925 163.59 215.583 168.919 218.805 164.362 224.385 164.434 221.047 159.961Z" fill="#D99838" transform="matrix(1.00152 0 0 1 440 -43.3562)"/><path d="M210.054 185.591 204.769 187.384 200.297 184.046 200.368 189.626 195.811 192.848 201.14 194.506 202.798 199.834 206.02 195.278 211.6 195.349 208.262 190.877Z" fill="#737373" transform="matrix(1.00152 0 0 1 440 -43.3562)"/></g></svg>